<svg width="601" height="215" viewBox="0 0 601 215" fill="green" xmlns="http://www.w3.org/2000/svg">
<path d="M245.848 43.546C239.515 43.5532 233.443 46.0723 228.966 50.5507C224.488 55.0291 221.969 61.101 221.963 67.434V126.934C222.03 131.192 221.25 135.42 219.667 139.373C218.084 143.326 215.731 146.924 212.744 149.959C209.757 152.994 206.196 155.404 202.268 157.049C198.341 158.694 194.125 159.541 189.867 159.541C185.609 159.541 181.393 158.694 177.466 157.049C173.538 155.404 169.977 152.994 166.99 149.959C164.003 146.924 161.65 143.326 160.067 139.373C158.484 135.42 157.704 131.192 157.771 126.934V67.434C157.771 61.0992 155.255 55.0238 150.775 50.5444C146.296 46.065 140.22 43.5485 133.885 43.5485C127.551 43.5485 121.475 46.065 116.996 50.5444C112.516 55.0238 110 61.0992 110 67.434V133.234C110 143.722 112.066 154.108 116.079 163.798C120.093 173.488 125.976 182.292 133.393 189.709C140.809 197.125 149.613 203.008 159.303 207.022C168.993 211.035 179.379 213.101 189.867 213.101C200.355 213.101 210.741 211.035 220.431 207.022C230.121 203.008 238.925 197.125 246.341 189.709C253.758 182.292 259.641 173.488 263.654 163.798C267.668 154.108 269.734 143.722 269.734 133.234V67.434C269.727 61.1009 267.209 55.029 262.731 50.5507C258.253 46.0723 252.181 43.5532 245.848 43.546ZM259.284 133.229C259.284 151.64 251.97 169.296 238.952 182.314C225.934 195.332 208.277 202.646 189.867 202.646C171.456 202.646 153.8 195.332 140.782 182.314C127.764 169.296 120.45 151.64 120.45 133.229V67.434C120.481 63.8908 121.909 60.5031 124.426 58.0083C126.942 55.5136 130.342 54.1139 133.885 54.1139C137.429 54.1139 140.829 55.5136 143.345 58.0083C145.861 60.5031 147.29 63.8908 147.321 67.434V126.934C147.321 138.218 151.803 149.04 159.782 157.019C167.761 164.998 178.583 169.48 189.867 169.48C201.151 169.48 211.973 164.998 219.952 157.019C227.93 149.04 232.413 138.218 232.413 126.934V67.434C232.413 63.8707 233.828 60.4533 236.348 57.9337C238.868 55.414 242.285 53.9985 245.848 53.9985C249.412 53.9985 252.829 55.414 255.349 57.9337C257.868 60.4533 259.284 63.8707 259.284 67.434V133.229Z" fill="green"/>
<path d="M184.642 55.724V124.608C184.642 125.994 185.192 127.323 186.172 128.303C187.152 129.283 188.481 129.833 189.867 129.833C191.253 129.833 192.582 129.283 193.562 128.303C194.541 127.323 195.092 125.994 195.092 124.608V55.724C201.838 54.4242 207.857 50.6566 211.975 45.157C216.092 39.6573 218.012 32.8205 217.359 25.9814C216.706 19.1423 213.528 12.7922 208.444 8.17081C203.361 3.54946 196.737 0.988769 189.867 0.988769C182.997 0.988769 176.373 3.54946 171.29 8.17081C166.206 12.7922 163.028 19.1423 162.375 25.9814C161.722 32.8205 163.642 39.6573 167.759 45.157C171.877 50.6566 177.896 54.4242 184.642 55.724ZM189.867 11.45C193.262 11.45 196.582 12.4569 199.405 14.3434C202.228 16.2299 204.429 18.9112 205.728 22.0483C207.028 25.1854 207.368 28.6374 206.705 31.9677C206.042 35.298 204.407 38.357 202.006 40.758C199.605 43.1589 196.546 44.7939 193.216 45.4562C189.885 46.1186 186.433 45.7784 183.296 44.4789C180.159 43.1793 177.478 40.9787 175.592 38.1553C173.705 35.3319 172.699 32.0126 172.699 28.617C172.704 24.0655 174.515 19.7019 177.733 16.4836C180.952 13.2653 185.315 11.455 189.867 11.45Z" fill="green"/>
<path d="M0.919998 124.12C0.919998 105.027 5.02667 90.2533 13.24 79.8C21.56 69.24 32.9733 63.96 47.48 63.96C62.0933 63.96 73.56 69.24 81.88 79.8C90.2 90.2533 94.36 104.653 94.36 123C94.36 141.347 91 155.693 84.28 166.04C77.6667 176.28 68.3867 182.413 56.44 184.44L71.32 214.04H58.84L44.6 185.08C30.9467 184.44 20.2267 178.893 12.44 168.44C4.76 157.987 0.919998 143.213 0.919998 124.12ZM81.56 124.6C81.56 108.28 78.52 95.7467 72.44 87C66.4667 78.1467 58.1467 73.72 47.48 73.72C36.92 73.72 28.6 78.1467 22.52 87C16.5467 95.7467 13.56 108.28 13.56 124.6C13.56 140.92 16.5467 153.507 22.52 162.36C28.6 171.107 36.92 175.48 47.48 175.48C58.1467 175.48 66.4667 171.107 72.44 162.36C78.52 153.507 81.56 140.92 81.56 124.6Z" fill="green"/>
<path d="M283.96 183V72.92H325.88V83.16H295.16V122.2H322.04V132.44H295.16V172.76H325.88V183H283.96Z" fill="green"/>
<path d="M358.789 184.28C355.375 184.28 351.642 184.067 347.589 183.64C343.535 183.213 340.015 182.68 337.029 182.04V172.28C344.495 173.453 350.629 174.04 355.429 174.04C358.842 174.04 361.562 173.773 363.589 173.24C365.722 172.707 367.482 171.693 368.869 170.2C370.149 168.92 371.002 166.947 371.429 164.28C371.855 161.507 372.069 157.773 372.069 153.08C372.069 146.68 371.855 142.307 371.429 139.96C371.109 137.613 370.255 135.96 368.869 135C367.589 133.933 365.082 133.027 361.349 132.28L346.149 129.24C342.949 128.6 340.549 127.16 338.949 124.92C337.349 122.68 336.335 119.8 335.909 116.28C335.482 112.76 335.269 108.013 335.269 102.04C335.269 91.16 337.189 83.3733 341.029 78.68C344.975 73.9867 351.482 71.64 360.549 71.64C364.709 71.64 368.602 71.9067 372.229 72.44C375.855 72.8667 378.415 73.3467 379.909 73.88V83.48C378.095 83.0533 375.642 82.68 372.549 82.36C369.455 82.04 366.415 81.88 363.429 81.88C359.482 81.88 356.389 82.3067 354.149 83.16C351.909 83.9067 350.202 85.1333 349.029 86.84C347.962 88.5467 347.269 90.5733 346.949 92.92C346.629 95.2667 346.469 98.3067 346.469 102.04C346.469 107.053 346.629 110.68 346.949 112.92C347.375 115.16 348.069 116.76 349.029 117.72C350.095 118.573 351.855 119.213 354.309 119.64L367.909 122.52C371.749 123.373 374.735 124.547 376.869 126.04C379.002 127.427 380.655 129.933 381.829 133.56C382.469 135.053 382.842 137.133 382.949 139.8C383.162 142.467 383.269 146.307 383.269 151.32C383.269 159.533 382.575 165.987 381.189 170.68C379.802 175.267 377.349 178.68 373.829 180.92C370.415 183.16 365.402 184.28 358.789 184.28Z" fill="green"/>
<path d="M409.409 183V83.32H389.889V72.92H439.969V83.32H420.449V183H409.409Z" fill="green"/>
<path d="M451.475 183V72.92H462.515V183H451.475Z" fill="green"/>
<path d="M506.107 184.28C497.574 184.28 491.441 182.84 487.708 179.96C484.081 177.08 481.734 171.96 480.667 164.6C479.601 157.24 479.067 145.027 479.067 127.96C479.067 110.893 479.601 98.68 480.667 91.32C481.734 83.96 484.081 78.84 487.708 75.96C491.441 73.08 497.574 71.64 506.107 71.64C514.641 71.64 520.721 73.08 524.347 75.96C528.081 78.84 530.481 83.96 531.548 91.32C532.614 98.68 533.147 110.893 533.147 127.96C533.147 145.027 532.614 157.24 531.548 164.6C530.481 171.96 528.081 177.08 524.347 179.96C520.721 182.84 514.641 184.28 506.107 184.28ZM506.107 174.04C511.227 174.04 514.801 173.24 516.828 171.64C518.854 169.933 520.241 166.04 520.988 159.96C521.734 153.773 522.107 143.107 522.107 127.96C522.107 112.813 521.734 102.2 520.988 96.12C520.241 89.9333 518.854 86.04 516.828 84.44C514.801 82.7333 511.227 81.88 506.107 81.88C500.987 81.88 497.414 82.7333 495.387 84.44C493.361 86.04 491.974 89.9333 491.227 96.12C490.481 102.2 490.107 112.813 490.107 127.96C490.107 143.107 490.481 153.773 491.227 159.96C491.974 166.04 493.361 169.933 495.387 171.64C497.414 173.24 500.987 174.04 506.107 174.04Z" fill="green"/>
<path d="M589.6 183L560.32 101.08H559.68V183H548.96V72.92H560.32L589.12 153.08H589.92V72.92H600.48V183H589.6Z" fill="green"/>
</svg>
